<?xml version="1.0" standalone="no"?>
<!DOCTYPE svg PUBLIC "-//W3C//DTD SVG 20010904//EN"
 "http://www.w3.org/TR/2001/REC-SVG-20010904/DTD/svg10.dtd">
<svg version="1.0" xmlns="http://www.w3.org/2000/svg"
 width="50.000000pt" height="50.000000pt" viewBox="0 0 50.000000 50.000000"
 preserveAspectRatio="xMidYMid meet">

<g transform="translate(0.000000,50.000000) scale(0.100000,-0.100000)"
fill="#000000" stroke="none">
<path d="M115 481 c-94 -43 -138 -147 -101 -236 12 -29 12 -40 0 -80 -12 -40
-12 -46 0 -42 71 28 153 9 188 -42 13 -19 36 -44 51 -55 28 -21 62 -23 175
-14 15 1 38 -1 50 -6 22 -7 23 -6 16 16 -5 12 -7 35 -6 51 9 112 7 146 -14
174 -11 15 -36 38 -55 51 -23 16 -38 36 -46 65 -7 25 -28 57 -50 78 -63 60
-135 74 -208 40z m163 -38 c53 -39 74 -82 70 -144 -7 -101 -73 -157 -171 -144
-29 3 -71 7 -93 8 -39 1 -41 3 -33 24 5 15 3 35 -7 60 -32 76 3 169 78 207 42
21 120 16 156 -11z m156 -194 c32 -37 40 -69 31 -112 -4 -17 -7 -46 -8 -63 -1
-27 -4 -30 -31 -31 -17 -1 -48 -5 -69 -8 -47 -9 -89 8 -123 48 l-26 31 36 13
c59 20 94 51 118 103 13 28 28 50 35 50 6 0 23 -14 37 -31z"/>
<path d="M146 388 c-20 -28 -2 -53 18 -25 7 9 21 17 30 17 27 0 31 -29 7 -54
-22 -23 -29 -66 -11 -66 6 0 14 8 17 17 4 9 15 25 25 35 10 10 18 29 18 41 0
53 -75 77 -104 35z"/>
<path d="M180 226 c0 -9 7 -16 16 -16 9 0 14 5 12 12 -6 18 -28 21 -28 4z"/>
</g>
</svg>
