<?xml version="1.0" standalone="no"?>
<!DOCTYPE svg PUBLIC "-//W3C//DTD SVG 20010904//EN"
 "http://www.w3.org/TR/2001/REC-SVG-20010904/DTD/svg10.dtd">
<svg version="1.0" xmlns="http://www.w3.org/2000/svg"
 width="50.000000pt" height="50.000000pt" viewBox="0 0 50.000000 50.000000"
 preserveAspectRatio="xMidYMid meet">

<g transform="translate(0.000000,50.000000) scale(0.100000,-0.100000)"
fill="#000000" stroke="none">
<path d="M235 468 c-3 -13 -5 -72 -3 -133 2 -90 6 -110 18 -110 12 0 16 20 18
110 3 115 -2 155 -18 155 -5 0 -12 -10 -15 -22z"/>
<path d="M75 382 c-67 -101 -58 -201 24 -283 108 -109 275 -82 349 56 24 45
22 150 -5 201 -12 22 -28 46 -36 53 -29 23 -27 -7 3 -64 45 -86 36 -162 -29
-226 -83 -83 -212 -73 -280 22 -51 70 -50 156 3 228 24 32 26 51 6 51 -6 0
-21 -17 -35 -38z"/>
</g>
</svg>
