<?xml version="1.0" standalone="no"?>
<!DOCTYPE svg PUBLIC "-//W3C//DTD SVG 20010904//EN"
 "http://www.w3.org/TR/2001/REC-SVG-20010904/DTD/svg10.dtd">
<svg version="1.0" xmlns="http://www.w3.org/2000/svg"
 width="50.000000pt" height="50.000000pt" viewBox="0 0 50.000000 50.000000"
 preserveAspectRatio="xMidYMid meet">

<g transform="translate(0.000000,50.000000) scale(0.100000,-0.100000)"
fill="#026fb0" stroke="none">
<path d="M195 491 c-135 -35 -220 -177 -181 -304 16 -53 55 -117 71 -117 6 0
38 21 70 48 75 60 115 132 115 207 0 90 -61 135 -120 87 -24 -20 -20 -45 5
-35 35 13 61 -47 33 -75 -17 -17 -54 -15 -72 4 -44 43 6 131 80 141 105 14
173 -89 128 -195 -21 -51 -66 -96 -152 -153 l-73 -48 43 -22 c58 -30 157 -31
213 -2 90 47 140 128 139 228 -1 124 -95 226 -220 239 -27 3 -62 1 -79 -3z
m209 -98 c4 -9 0 -23 -9 -32 -13 -14 -17 -14 -32 1 -13 14 -14 20 -3 32 16 21
36 20 44 -1z m1 -118 c0 -23 -34 -33 -45 -14 -13 20 1 40 24 37 13 -2 21 -10
21 -23z"/>
</g>
</svg>
