<?xml version="1.0" standalone="no"?>
<!DOCTYPE svg PUBLIC "-//W3C//DTD SVG 20010904//EN"
 "http://www.w3.org/TR/2001/REC-SVG-20010904/DTD/svg10.dtd">
<svg version="1.0" xmlns="http://www.w3.org/2000/svg"
 width="50.000000pt" height="50.000000pt" viewBox="0 0 50.000000 50.000000"
 preserveAspectRatio="xMidYMid meet">

<g transform="translate(0.000000,50.000000) scale(0.100000,-0.100000)"
fill="#000000" stroke="none">
<path d="M190 436 c0 -31 -14 -40 -30 -21 -17 21 -24 19 -59 -16 -35 -35 -37
-42 -16 -59 19 -16 10 -30 -21 -30 -22 0 -24 -4 -24 -50 0 -46 2 -50 24 -50
31 0 40 -14 21 -30 -21 -17 -19 -24 16 -59 35 -35 42 -37 59 -16 16 19 30 10
30 -21 0 -22 4 -24 50 -24 46 0 50 2 50 24 0 31 14 40 30 21 17 -21 24 -19 59
16 35 35 37 42 16 59 -19 16 -10 30 21 30 22 0 24 4 24 50 0 46 -2 50 -24 50
-31 0 -40 14 -21 30 21 17 19 24 -16 59 -35 35 -42 37 -59 16 -16 -19 -30 -10
-30 21 0 22 -4 24 -50 24 -46 0 -50 -2 -50 -24z m80 -20 c0 -30 30 -42 59 -24
17 11 23 10 38 -5 15 -15 16 -21 5 -38 -18 -29 -6 -59 24 -59 20 0 24 -5 24
-30 0 -25 -4 -30 -24 -30 -30 0 -42 -30 -24 -59 11 -17 10 -23 -5 -38 -15 -15
-21 -16 -38 -5 -29 18 -59 6 -59 -24 0 -20 -5 -24 -30 -24 -25 0 -30 4 -30 24
0 30 -30 42 -59 24 -17 -11 -23 -10 -38 5 -15 15 -16 21 -5 38 18 29 6 59 -24
59 -20 0 -24 5 -24 30 0 25 4 30 24 30 30 0 42 30 24 59 -11 17 -10 23 5 38
15 15 21 16 38 5 29 -18 59 -6 59 24 0 20 5 24 30 24 25 0 30 -4 30 -24z"/>
<path d="M190 310 c-43 -43 -11 -120 50 -120 38 0 70 32 70 70 0 17 -9 39 -20
50 -11 11 -33 20 -50 20 -17 0 -39 -9 -50 -20z m88 -12 c15 -15 15 -61 0 -76
-15 -15 -61 -15 -76 0 -15 15 -15 61 0 76 15 15 61 15 76 0z"/>
</g>
</svg>
